<?xml version="1.0" encoding="UTF-8" standalone="no"?>
<!-- Created with Inkscape (http://www.inkscape.org/) -->

<svg
   width="210mm"
   height="210mm"
   viewBox="0 0 210 210"
   version="1.1"
   id="svg1"
   xmlns:xlink="http://www.w3.org/1999/xlink"
   xmlns="http://www.w3.org/2000/svg"
   xmlns:svg="http://www.w3.org/2000/svg">
  <defs
     id="defs1">
    <linearGradient
       id="linearGradient18">
      <stop
         style="stop-color:#fff2b2;stop-opacity:1;"
         offset="0"
         id="stop18" />
      <stop
         style="stop-color:#ffacf6;stop-opacity:1;"
         offset="1"
         id="stop19" />
    </linearGradient>
    <linearGradient
       id="linearGradient16">
      <stop
         style="stop-color:#fff2b2;stop-opacity:1;"
         offset="0"
         id="stop16" />
      <stop
         style="stop-color:#ffacf6;stop-opacity:1;"
         offset="1"
         id="stop17" />
    </linearGradient>
    <linearGradient
       xlink:href="#linearGradient16"
       id="linearGradient17"
       x1="69.645836"
       y1="8.6648417"
       x2="137.76727"
       y2="195.82697"
       gradientUnits="userSpaceOnUse" />
    <linearGradient
       xlink:href="#linearGradient18"
       id="linearGradient19"
       x1="69.645836"
       y1="8.6648417"
       x2="137.76727"
       y2="195.82697"
       gradientUnits="userSpaceOnUse" />
    <clipPath
       clipPathUnits="userSpaceOnUse"
       id="clipPath153">
      <path
         id="path154"
         style="fill:#ff0000;fill-opacity:1;fill-rule:nonzero;stroke:none;stroke-width:0.264583"
         d="m -66.436958,27.686782 v 4.727877 c 1.248471,2.408568 2.049698,5.55085 2.115632,9.4356 0.03929,2.315197 0.0021,4.633198 0.117822,6.945831 0.16923,3.379338 0.406678,6.754744 0.644406,10.130131 3.094104,1.655988 5.957845,3.767326 8.411374,6.214608 0.07222,-1.003435 0.07615,-1.732624 0.163814,-1.042832 0.05465,0.429993 0.08505,0.860407 0.09819,1.291394 0.393033,0.400458 0.756115,0.821021 1.126029,1.238166 0.133782,-1.153446 0.258054,-2.308098 0.393774,-3.461287 1.145662,-9.734479 2.019261,-19.120853 4.541843,-28.598252 0.626592,-2.354143 1.580224,-4.60575 2.457731,-6.881236 z m 42.65166,0 c 0.555109,0.98547 1.030436,2.013064 1.398881,3.099552 0.588476,-1.214382 1.287831,-2.21755 2.035535,-3.099552 z m 22.1945109,0 c 0.00499,0.0315 0.00942,0.06308 0.014469,0.09457 0.00334,-0.0315 0.00628,-0.06304 0.0093,-0.09457 z m 5.2849487,0 c 0.026552,1.227754 0.00819,2.455694 -0.00156,3.683498 -0.0085,0.545714 -0.014597,1.091827 -0.039791,1.637109 -0.02154,0.466188 -0.021976,0.384723 -0.056844,0.825273 -0.010414,0.131561 -0.020053,0.263207 -0.029972,0.394808 -0.020026,0.220451 -0.040798,0.474771 -0.06873,0.695563 -0.010972,0.08674 0.044566,0.232937 -0.038757,0.259416 -0.6084713,0.193345 -0.9233437,0.308727 -1.0955404,0.276985 -0.06284,0.06489 -0.1206402,0.133707 -0.1808676,0.200506 C 1.8616429,35.46146 1.4915243,35.326515 1.220917,35.064109 1.132573,34.97844 1.196538,34.819515 1.188878,34.69669 1.174995,34.474049 1.1653089,34.020339 1.161489,33.809923 c -0.00439,-0.241948 -0.00563,-0.46972 -0.00775,-0.698148 -0.0095,0.05563 -0.018246,0.111342 -0.028422,0.166915 -0.089722,0.489977 -0.20762592,1.398273 -1.06866867,1.176671 -0.18608352,-0.04789 -0.26982108,-0.243271 -0.35398356,-0.437697 -0.0636651,0.31056 -0.13752279,0.669083 -0.20050455,0.918805 -0.0472436,0.187325 -0.0935781,0.374962 -0.1565796,0.557588 -0.0969743,0.281107 -0.30501691,0.802672 -0.55965572,0.991156 -0.1951668,0.144462 -0.448235,0.187063 -0.6723104,0.280601 -0.2025019,-0.07386 -0.426609,-0.104008 -0.6071981,-0.221692 -0.088208,-0.05748 -0.1708164,-0.151921 -0.245463,-0.260448 -0.1617889,0.176954 -0.4158928,0.261917 -0.8314738,0.150895 -0.071729,-0.01916 -0.1259553,-0.06224 -0.171049,-0.11834 0.058773,1.30593 0.019505,2.701515 -0.160197,4.210597 -0.2828145,2.37498 -0.5204815,4.754314 -0.787549,7.130831 0.9217668,3.438718 0.8981395,15.543429 0.8847005,16.637743 -0.047169,3.840975 -0.2346153,7.888581 -0.4656045,11.929504 0.05065,-0.03482 0.1019046,-0.0688 0.1565797,-0.09663 0.1736418,-0.08839 0.3657224,-0.135271 0.5555216,-0.17105 0.3390358,-0.06392 0.6843216,-0.0871 1.0288778,-0.0894 0.8072888,-0.007 1.61438198,-0.01318 2.42155759,0.0062 0.2231436,-0.0021 0.35908019,0.0021 0.57670898,-0.01913 0.1457956,-0.01413 0.41452377,-0.06271 0.55913903,-0.06511 0.1273135,-0.0021 0.2613966,-0.02257 0.3818888,0.0186 0.028573,0.0098 0.055464,0.02341 0.082682,0.03617 -0.010916,-0.184415 -0.020973,-0.368612 -0.03359,-0.552937 -0.072288,-1.056097 0.7985499,-1.296913 1.1492837,-0.624252 0.00329,0.0026 0.00656,0.0051 0.00982,0.0078 0.00556,-0.05756 0.011639,-0.11494 0.016021,-0.172598 0.035802,-0.471088 -0.049546,-0.797598 0.6071981,-0.775664 0.1515565,0.0051 0.342773,0.02869 0.5839439,0.07338 0.082423,0.01527 0.1157896,0.211974 0.1281573,0.425297 0.00917,0.0045 0.00736,0.02146 0.00156,0.04289 0.00938,0.209645 0.00156,0.4259 0.00103,0.492993 -0.00249,0.166277 -0.00532,0.332399 -0.00775,0.498676 -0.00496,0.339923 -0.012494,1.002644 -0.025323,1.327568 -0.030985,0.784783 -0.1017206,1.567394 -0.1679482,2.349728 -0.059653,0.749972 -0.1537915,1.49625 -0.2573489,2.241206 -0.055008,0.395708 -0.1042143,0.766233 -0.1834512,1.157036 -0.031737,0.15653 -0.072743,0.311102 -0.1090372,0.466637 -0.042073,0.132911 -0.067497,0.272445 -0.1260906,0.398945 -0.057336,0.12378 -0.1403937,0.266448 -0.2454629,0.389638 -0.00185,0.01582 -0.00204,0.03175 -0.00413,0.04754 -0.011869,0.08957 -0.018547,0.182493 -0.05271,0.266133 -0.050045,0.122526 -0.069233,0.309724 -0.1968871,0.344684 -0.3191576,0.08739 -0.6618613,-0.01273 -0.9927043,-0.01913 -0.07172,-0.130214 -0.158684,-0.253082 -0.214974,-0.390673 -0.043423,-0.106148 -0.062893,-0.2212 -0.081649,-0.334349 -0.020157,-0.121584 -0.033447,-0.283458 -0.038241,-0.440798 -0.1243773,-0.2975 -0.2302008,-0.662427 -0.27801916,-0.80667 -0.0578662,-0.222811 -0.11178913,-0.446421 -0.16329753,-0.670761 -0.0258437,0.03312 -0.0524387,0.06569 -0.0754476,0.100253 -0.1167519,0.07735 -0.2239871,0.171678 -0.35036623,0.232029 -0.16502192,0.0788 -0.4045078,0.09869 -0.58497718,0.110586 -0.35663976,0.0235 -0.71429986,0.01196 -1.0712525,0.0072 -0.4536391,-0.01892 -0.9081959,-0.03528 -1.3601237,-0.08165 -0.2859446,-0.02934 -0.5545817,-0.06387 -0.8330241,-0.136427 -0.1033482,-0.02693 -0.2025211,-0.06705 -0.3038575,-0.100769 -0.027651,-0.01357 -0.055732,-0.02633 -0.083716,-0.03927 -0.1122426,0.09217 -0.2301986,0.188418 -0.2563151,0.206706 -0.062513,0.04378 -0.1312312,0.07788 -0.196887,0.11679 -0.091899,-0.131599 -0.1943492,-0.257181 -0.2961061,-0.38344 -0.138209,2.193727 -0.2780781,4.438155 -0.4010091,6.534484 -0.2592464,4.420896 -0.4978214,8.842835 -0.7467242,13.264305 -0.00167,0.0291 -0.00246,0.0582 -0.00413,0.0873 0.9964193,-2.481474 2.8395994,-3.686596 4.6482951,-3.631824 2.581046,0.07817 5.0844332,2.711284 4.9294149,7.821224 -0.08146,2.68521 -0.1910955,5.37329 -0.081649,8.05946 0.1157732,4.32101 0.3289536,8.64718 0.1224733,12.96872 -0.2330725,5.7203 -0.5192046,11.44924 -1.2996625,17.12557 -0.7119172,4.68661 -1.69126406,9.31849 -2.57968727,13.97279 -0.01122045,0.3283 -0.02326587,0.65672 -0.03617349,0.98495 0.01128025,-0.0769 0.02172362,-0.15409 0.03307292,-0.23099 7.0114e-4,-0.0446 2.041e-4,-0.0892 0.0020664,-0.13384 0.0038891,-0.093 -0.03809955,-0.20684 0.02118731,-0.27854 0.20353766,-0.24626 0.48404139,-0.41673 0.72605386,-0.62529 0.19595653,0.21263 0.41722727,0.4044 0.58807777,0.63769 0.0146,0.0199 0.014665,0.0446 0.011369,0.0703 0.2837946,-0.0794 0.5960401,-0.12719 0.8743654,-0.0403 0.075717,0.0236 0.1224479,0.0873 0.1581298,0.16382 0.1604272,-0.0481 0.3949862,-0.0582 0.7410403,-0.0238 0.3068521,0.0305 0.266007,0.95337 0.2651,1.15444 -0.00915,0.18854 -0.020804,0.37658 -0.034107,0.56483 0.00566,0.18138 0.012078,0.36272 0.016536,0.54415 0.00339,0.23703 0.00885,0.41991 0,0.65836 -0.015274,0.41166 -0.072041,0.82014 -0.1235067,1.22835 -0.034309,0.27037 -0.075088,0.53994 -0.1255739,0.80769 -0.00671,0.10645 -0.014658,0.21286 -0.020672,0.31936 -0.00713,0.0946 -0.012089,0.18905 -0.01602,0.28371 H 201.74719 c -0.0122,-0.45648 -0.0245,-0.91287 -0.0336,-1.36943 -0.0243,-2.07236 -0.0506,-4.15499 0.25115,-6.21149 0.0256,-0.13235 0.18482,-1.18717 0.37465,-1.30536 0.23643,-0.14719 0.52409,-0.22802 0.80874,-0.23926 0.0949,-0.004 0.18955,-5e-5 0.28163,0.0119 0.1609,0.0206 0.20832,0.25414 0.27492,0.40205 0.0107,0.0237 0.0197,0.0527 0.0289,0.0816 0.28615,0.0575 0.54013,0.37276 0.52658,0.94775 -0.005,0.2191 -0.0102,0.43821 -0.0155,0.65732 0.82203,-2.41518 1.85173,-3.43534 3.02152,-3.47214 0.55295,-0.0174 1.14367,0.23325 1.75028,0.60152 0.21051,-2.10155 0.43276,-4.20344 0.88987,-6.26939 0.32359,-1.46248 0.65472,-2.55073 0.9896,-3.47265 -0.21443,-0.4221 -0.4325,-0.86896 -0.65732,-1.36994 -0.41924,-0.93426 -0.9089,-1.8402 -1.2578,-2.80293 -0.52578,-1.4508 -0.91279,-3.53201 -1.16686,-5.06533 -0.39206,-2.36605 -0.6529,-4.7562 -0.92449,-7.13806 -0.0959,-0.85027 -0.23462,-1.6944 -0.34106,-2.543 -0.0911,0.5755 -0.26655,1.10585 -0.6165,1.12603 -1.54526,0.0892 -1.974,-0.31722 -2.17041,-1.0325 -0.0221,0.25976 -0.0456,0.51935 -0.0661,0.77928 -0.2012,2.54821 -2.77581,2.34457 -2.574,-0.2036 0.0815,-1.02902 0.17716,-2.05676 0.26716,-3.08508 0.19021,-2.41518 0.3659,-4.8321 0.61134,-7.24246 0.23286,-1.42357 -0.0315,-1.42136 2.55023,-1.37097 0.12461,0.002 0.16899,0.13304 0.19792,0.28112 0.15854,-0.15463 0.33992,-0.25113 0.52762,-0.29197 -0.22871,-10.0919 5.03434,-15.622743 10.79624,-15.776818 0.43077,-0.01151 0.86422,0.0108 1.29811,0.05943 0.0271,-0.648689 0.0422,-1.369248 0.0661,-1.990061 -5.55665,0.185306 -10.84793,-4.66285 -11.46235,-13.893726 -0.051,0.139946 -0.19675,0.178165 -0.73794,0.141595 -0.12676,-0.0086 -0.11998,-0.225039 -0.16278,-0.344681 -0.0253,-0.07076 -0.0253,-0.148492 -0.0398,-0.22221 -0.03,-0.152117 -0.0881,-0.417679 -0.13539,-0.637686 -0.001,0.0057 -0.002,0.01135 -0.003,0.01704 -0.25085,1.64e-4 -0.52133,0.0878 -0.76326,0.04806 -0.0298,0.05909 -0.061,0.116867 -0.0951,0.171567 -0.0533,0.08543 -0.12079,0.160623 -0.18913,0.235127 0.001,0.3067 -0.11732,0.471821 -0.2589,0.566891 0.0404,0.357079 0.0293,0.278305 0.10077,0.75551 0.18943,1.263957 -1.08969,1.454454 -1.27693,0.190169 -0.0888,-0.599903 -0.0468,-0.285284 -0.12247,-0.944129 -0.14213,-1.472625 -0.28144,-2.949638 -0.22944,-4.431254 0.008,-0.251553 0.011,-0.503129 0.0238,-0.754476 0.0218,-0.426953 0.0693,-0.935217 0.11679,-1.361675 0.0135,-0.121359 0.0983,-0.798745 0.12506,-0.972032 0.0123,-0.07921 0.0296,-0.157408 0.045,-0.236161 0.10387,-0.549426 0.39342,-0.799767 0.67025,-0.802019 0.35592,-0.0029 0.6909,0.404498 0.58239,1.115177 -0.0139,0.09098 -0.0261,0.182216 -0.0393,0.27337 0.27304,-0.01185 0.44496,0.110276 0.51934,0.31574 0.0678,-0.03017 0.14857,-0.05513 0.24805,-0.07235 0.0294,-0.0051 0.0567,-0.005 0.0827,-0.0021 0.004,-0.172815 -0.02,-0.369499 0.11369,-0.451652 0.47207,-0.290009 0.7126,-0.332306 0.84336,-0.225311 0.023,-0.03878 0.0464,-0.07762 0.0687,-0.116787 0.10236,-0.07579 0.18798,-0.272844 0.30696,-0.227378 0.12372,0.04727 0.23618,0.123709 0.33641,0.215493 0.0824,-0.134284 0.18452,-0.220536 0.28836,-0.264067 0.39441,-3.479202 0.79903,-6.964604 1.86448,-10.312549 1.3703,-4.305884 2.60017,-5.957257 3.77342,-5.935556 2.08558,0.03857 3.99845,5.360432 6.2022,10.459826 0.21461,-8.140177 0.3584,-16.281371 0.30282,-24.424865 -6.03823,2.983582 -13.18163,-0.575935 -15.12155,-9.824207 -0.0665,-0.04527 -0.11302,-0.09289 -0.19741,-0.169497 -0.15014,-0.167614 -0.26475,-0.361085 -0.37465,-0.556557 -0.15662,5.29e-4 -0.31684,-0.140668 -0.3359,-0.450101 -0.006,-0.100597 -0.0103,-0.201221 -0.0155,-0.301789 -0.005,-0.01786 -0.008,-0.02858 -0.015,-0.05168 -0.0754,-0.273103 -0.10413,-0.5549 -0.11213,-0.837158 -0.0111,-0.270869 0.0325,-0.540284 0.0305,-0.810805 -10e-4,-0.06838 -0.005,-0.136297 -0.008,-0.204636 -0.0426,-0.383831 -0.11689,-0.763204 -0.18138,-1.143601 -0.0508,-0.299831 -0.0519,-0.328602 -0.0915,-0.63097 -0.058,-0.558655 -0.0343,-1.119823 -0.0103,-1.679483 0.003,-0.04244 0.008,-0.08472 0.0114,-0.127124 z m 207.5459884,0 c 0.0193,0.0089 0.034,0.01632 0.0553,0.02585 -0.0142,-0.0069 -0.0281,-0.01598 -0.0419,-0.02585 z m 0.71417,0 c 2.7e-4,7.94e-4 -1.1e-4,0.0019 5.3e-4,0.0026 0.001,-0.0011 0.002,-0.0016 0.003,-0.0026 z m 41.92767,0 c 0.0862,0.44055 0.18491,0.906344 0.24701,1.28261 0.34556,2.09363 0.55225,4.210932 0.7674,6.320544 0.50051,5.584648 0.98977,11.201131 0.89297,16.814996 -0.0324,1.881915 -0.15641,3.760949 -0.23461,5.641515 -0.4599,6.349137 -1.08208,12.696748 -2.03709,18.992638 -0.094,0.619474 -1.19959,7.408156 -1.74098,8.733835 -0.74907,1.834245 -1.83246,3.513225 -2.74867,5.269963 -2.29641,-0.624041 -4.64171,-1.117841 -6.99078,-1.60197 -0.006,0.230132 -0.0126,0.460261 -0.0186,0.690396 -0.13251,5.106495 -0.14554,7.652509 -0.42426,12.746511 -0.0863,1.57748 -0.22254,3.15101 -0.33693,4.72633 0.29694,-0.0236 0.59377,-0.0226 0.8909,-0.0367 0.46603,-8.234097 2.5336,-16.661309 14.87248,-15.341186 2.61482,0.279754 4.42361,1.683686 5.74745,3.566705 V 27.686782 Z M -2.4925408,77.900773 c -0.029975,0.0075 -0.060589,0.01466 -0.085266,0.02532 -0.026259,0.01138 -0.038567,0.04245 -0.057878,0.06356 -0.00307,0.02056 -0.00383,0.0414 -0.00878,0.0615 0.018002,-0.01971 0.035975,-0.04195 0.053743,-0.06098 0.03163,-0.02907 0.065737,-0.05923 0.098185,-0.0894 z M 202.26602,115.34862 c 5.3e-4,-7.9e-4 7.9e-4,0.005 0.001,0.0181 0.002,0.0935 0.0236,0.18497 0.0455,0.27647 -0.0515,-0.079 -0.0495,-0.28955 -0.0465,-0.29455 z m -240.56826,4.1615 c -0.02817,0.34284 -0.0572,0.6856 -0.0863,1.02836 0.03193,0.0166 0.06438,0.03 0.09612,0.0475 -0.0045,-0.35862 -0.0051,-0.71728 -0.0098,-1.0759 z m 242.31957,5.31182 c -0.10873,0.32517 -0.0576,0.63731 -5.3e-4,0.006 1.7e-4,-0.002 4e-5,-0.004 5.3e-4,-0.006 z M -7.5098056,137.29611 c -0.096757,1.98302 -0.1994686,3.96579 -0.291972,5.94899 0.049901,-0.31388 0.1082813,-0.62609 0.1555462,-0.94051 0.1948905,-1.44422 0.2912348,-2.89832 0.4268472,-4.34857 -0.1071626,-0.19957 -0.2044885,-0.42039 -0.2904214,-0.65991 z M 233.70596,163.53017 c -0.16189,0.11743 -0.29909,0.2672 -0.46767,0.37569 h 0.48007 c -0.003,-0.12524 -0.009,-0.25045 -0.0124,-0.37569 z M 1.0188727,163.66298 c 5.95e-5,0.005 -6.059e-4,0.009 -5.159e-4,0.0139 4.207e-4,0.0219 0.014209,0.0868 0.011369,0.0651 -0.00421,-0.0322 -0.00736,-0.056 -0.010852,-0.0791 z" />
    </clipPath>
  </defs>
  <g
     id="layer4">
    <rect
       style="fill:url(#linearGradient17);fill-opacity:1;stroke:url(#linearGradient19);stroke-width:20;stroke-linecap:round;stroke-linejoin:round;stroke-miterlimit:20;stroke-dasharray:none;paint-order:stroke fill markers"
       id="rect2"
       width="179.17377"
       height="179.17377"
       x="14.119672"
       y="12.659017" />
    <path
       id="path13"
       style="fill:none;fill-opacity:1;stroke:#d86ecc;stroke-width:5;stroke-dasharray:none;stroke-opacity:1"
       transform="translate(0.97377049,7.514686)"
       d="M -6.3295159,30.186889 -13.146154,31.160473 -31.339876,78.87539 H 238.08709 V 59.775264 c -0.0899,0.09009 -0.19996,0.14933 -0.3421,0.15968 -1.56941,0.11426 -2.98719,-0.990166 -4.48086,-1.485181 0.0316,-0.538064 0.1201,-1.068037 0.18087,-1.601969 -1.88384,1.296363 -3.76107,2.604653 -5.55677,4.021976 -0.66882,0.52789 -1.36076,0.46179 -0.83509,-0.208772 0.14447,-0.184289 0.26162,-0.393962 0.43356,-0.552938 0.37961,-0.351008 2.3486,-1.7812 2.58951,-1.95492 1.41378,-1.019464 1.93227,-1.364195 3.35587,-2.342492 0.0476,-0.03269 0.0937,-0.05839 0.13901,-0.08062 0.50159,-3.441953 1.43756,-6.822181 2.00608,-10.252087 0.34482,-2.08033 1.44238,-2.993506 2.49855,-2.964677 0.004,1.04e-4 0.008,9.39e-4 0.0114,10e-4 V 30.186889 Z M -31.339876,78.87539 h -30.494779 v 41.87238 h 14.529346 z m -15.965433,41.87238 -15.50293,40.65798 H 248.61565 l 10.89442,-40.65798 z"
       clip-path="url(#clipPath153)" />
    <path
       style="display:none;fill:none;fill-rule:nonzero;stroke:none;stroke-width:10;stroke-linecap:round;stroke-linejoin:round;stroke-dasharray:none;stroke-opacity:1;paint-order:fill markers stroke"
       d="m -13.145902,31.160656 c 0,0 0.705996,4.941965 0.705996,4.941965 1.718767,-0.245539 3.9617375,-0.691208 6.5636882,-1.273929 C 66.948839,34.665278 148.04017,34.450978 234.13848,34.204719 c 0.15119,10.528637 0.38321,25.783925 0.62708,41.408815 -97.43725,0.247834 -197.018616,0.50682 -296.599986,0.765807 l -2.542444,0.0066 0.04637,2.489457 c 0.26193,14.060598 0.52386,28.1212 0.774253,41.87213 0,0 0.03139,1.72583 0.03139,1.72583 1.21e-4,0 1.6903,-0.004 1.690421,-0.004 110.186213,-0.26144 217.781616,-0.51031 320.081086,-0.73346 -3.32419,13.2869 -6.76571,26.96949 -9.90297,39.32116 -124.12729,0.21852 -230.646593,0.34883 -311.151886,0.34883 80.56404,0 187.180066,0.1305 311.423656,0.34931 2e-5,0 0.26426,4.7e-4 0.26428,4.7e-4 0,0 0.0731,-0.25937 0.0731,-0.25937 3.47738,-12.33273 7.36337,-25.99183 11.50899,-40.49367 0,0 0.3539,-1.23785 0.3539,-1.23785 6e-5,0 -1.30603,-0.003 -1.30597,-0.003 -102.1344,-0.22267 -209.563256,-0.47105 -319.591093,-0.73205 0.204231,-11.21748 0.449978,-24.426626 0.69633,-37.65203 99.896493,0.259805 199.775293,0.519519 297.471853,0.767882 5e-5,0 3.21884,0.0082 3.2189,0.0082 0,0 0.0514,-3.278503 0.0514,-3.278503 0.26252,-16.763609 0.51235,-33.131431 0.73621,-48.68852 0,0 0.0572,-3.994875 0.0572,-3.994875 -1e-5,0 -4.06366,-0.01166 -4.06367,-0.01166 -87.5679,-0.251006 -170.01889,-0.469352 -244.4164182,-0.636296 -6.1e-5,0 0.1098834,2.47e-4 0.1098224,2.47e-4 -0.2555022,0.01498 -0.5109754,0.03045 -0.7664181,0.04642 -2.7503689,0.171881 -5.1024201,0.37606 -6.8657941,0.62797 0,0 0.705996,4.941965 0.705996,4.941965 z"
       id="path11"
       transform="translate(0.97377049,7.514686)" />
    <g
       id="g6">
      <ellipse
         style="fill:#000000;stroke-width:0.262035"
         id="path1"
         cx="76.576759"
         cy="147.44948"
         rx="37.5"
         ry="35.55246" />
      <path
         d="m 76.440984,32.134426 c 40.898366,61.34754 9.819458,44.2629 44.793446,66.216392 34.03286,21.362742 0,13.313112 0,51.609832 0,50.12791 -47.714758,2.92132 -47.714758,2.92132"
         id="path5"
         style="display:none;fill:#000000" />
      <path
         style="fill:#000000;fill-rule:nonzero;stroke:#000000;stroke-width:10;stroke-linecap:round;stroke-linejoin:round;stroke-dasharray:none;stroke-opacity:1;paint-order:fill markers stroke"
         d="m 76.440984,32.134426 c 0,0 -4.15371,2.76914 -4.15371,2.76914 8.746606,13.119908 15.042358,23.799799 19.117066,32.378675 1.603901,3.376847 2.713382,6.109083 3.554755,8.437991 0.805531,2.229699 1.256474,3.764182 1.815901,5.491084 0.248022,0.765619 0.517912,1.564673 0.826742,2.33965 0.306372,0.768804 0.668447,1.558646 1.128017,2.350632 0.454153,0.782651 0.984507,1.535852 1.628145,2.283756 0.6246,0.72579 1.33753,1.424718 2.15439,2.126409 1.56782,1.346782 3.60243,2.775769 6.31361,4.522385 2.65714,1.711796 6.06225,3.79075 10.53597,6.499832 4.2103,2.54516 7.32655,4.60588 9.57563,6.33051 1.10607,0.84815 1.96733,1.58835 2.63422,2.24147 0.66377,0.65007 1.10017,1.18 1.39043,1.609 0.2793,0.41281 0.42241,0.73129 0.49561,0.96108 0.0734,0.23039 0.10982,0.47116 0.0699,0.78362 -0.0416,0.32575 -0.16661,0.73179 -0.42104,1.24908 -0.25431,0.51706 -0.61187,1.09369 -1.07684,1.76002 -0.92002,1.31846 -2.20409,2.89533 -3.57926,4.78241 -1.38738,1.90385 -2.85083,4.10772 -4.17372,6.75944 -1.33645,2.67891 -2.50385,5.76411 -3.31779,9.3991 -0.82589,3.68836 -1.277,7.89481 -1.19458,12.75094 0.0418,3.09258 -0.10197,5.77644 -0.39801,8.10027 -0.29971,2.35253 -0.75493,4.33172 -1.32932,5.99067 -0.58209,1.6812 -1.28669,3.034 -2.07751,4.11588 -0.80225,1.09751 -1.70333,1.93021 -2.67926,2.54717 -0.99536,0.62926 -2.08613,1.04506 -3.25533,1.27759 -1.19541,0.23773 -2.4712,0.28344 -3.80212,0.16867 -2.7642,-0.23836 -5.72055,-1.16443 -8.616872,-2.43508 -3.06767,-1.34582 -6.086725,-3.08599 -8.793867,-4.8405 -2.925778,-1.8962 -5.589389,-3.87551 -7.722331,-5.55148 -5.427259,-4.26452 -7.570178,-6.45187 -7.570178,-6.45187 0,0 2.05107,2.27201 7.340693,6.7337 2.079708,1.75419 4.683434,3.83247 7.561282,5.84893 2.658023,1.86243 5.652095,3.74387 8.726412,5.24813 2.889181,1.41368 5.944411,2.54137 8.903381,2.95405 1.43279,0.19982 2.86494,0.23523 4.25908,0.0423 1.36794,-0.18932 2.70495,-0.59941 3.96711,-1.29407 1.24092,-0.68298 2.39493,-1.63318 3.42487,-2.89318 1.01161,-1.23758 1.89679,-2.76624 2.62873,-4.61666 0.7214,-1.82377 1.29582,-3.96385 1.69946,-6.45752 0.39875,-2.46351 0.63194,-5.27898 0.6737,-8.48698 0.0824,-4.63985 0.67739,-8.5668 1.59718,-11.92256 0.90488,-3.30139 2.12056,-6.03768 3.46219,-8.36005 1.32878,-2.30014 2.78361,-4.19928 4.20156,-5.86098 1.41208,-1.65483 2.78962,-3.06859 3.99836,-4.47484 0.59697,-0.69451 1.17373,-1.4146 1.66507,-2.1623 0.49348,-0.75096 0.9342,-1.57936 1.2241,-2.49829 0.29579,-0.93759 0.42557,-1.94226 0.31921,-3.01075 -0.10607,-1.06551 -0.43737,-2.09895 -0.95013,-3.10228 -0.51051,-0.99893 -1.20424,-1.97521 -2.0494,-2.94523 -0.85175,-0.97759 -1.88524,-1.98063 -3.09886,-3.02564 -2.44998,-2.10962 -5.74033,-4.48027 -9.96668,-7.230075 -4.37909,-2.848353 -7.60161,-5.007087 -10.04124,-6.764327 -2.51695,-1.812933 -4.08447,-3.117305 -5.11377,-4.175341 -0.51813,-0.5326 -0.8767,-0.979782 -1.13907,-1.370416 -0.26354,-0.39237 -0.44473,-0.74989 -0.59102,-1.103913 -0.15061,-0.364513 -0.2847,-0.776218 -0.42122,-1.272034 -0.14498,-0.526516 -0.28418,-1.115165 -0.45697,-1.862159 -0.36453,-1.575939 -0.80459,-3.525675 -1.57246,-6.026595 -0.83093,-2.706284 -1.97078,-5.810798 -3.62409,-9.526054 C 96.015506,53.982355 89.440795,42.634435 80.594694,29.365286 Z"
         id="path4" />
      <path
         d="m 80.336065,27.265573 45.767215,3.895083 36.0295,15.580326 17.52787,36.029508 -37.97705,-16.554098 -38.95081,2.921312 z"
         id="path9"
         style="fill:#000000" />
      <path
         style="fill:#000000;fill-rule:nonzero;stroke:none;stroke-width:10;stroke-linecap:round;stroke-linejoin:round;stroke-dasharray:none;stroke-opacity:1;paint-order:fill markers stroke"
         d="m 80.336065,27.265573 45.767215,3.895083 36.0295,15.580326 17.52787,36.029508 -37.97705,-16.554098 -38.95081,2.921312 z"
         id="path8" />
    </g>
    <rect
       style="display:none;opacity:0.25;fill:#ff0000;fill-opacity:1;stroke:#ff0000;stroke-width:1;stroke-linecap:round;stroke-linejoin:round;stroke-miterlimit:20;stroke-dasharray:none;stroke-opacity:1;paint-order:markers fill stroke"
       id="rect2-5"
       width="200.25301"
       height="200.23199"
       x="3.5719414"
       y="2.1208427" />
  </g>
</svg>
